<svg xmlns="http://www.w3.org/2000/svg" width="655.359" height="655.359" fill-rule="evenodd" clip-rule="evenodd" image-rendering="optimizeQuality" shape-rendering="geometricPrecision" text-rendering="geometricPrecision" viewBox="0 0 6.827 6.827"><circle cx="3.413" cy="3.413" r="3.413" fill="#0288d1"/><path fill="#fffffe" d="M3.39867 4.75122l-0.000228346 0.000413386c-0.10939,0.197224 -0.261996,0.392272 -0.473583,0.485394 -0.157244,0.0692087 -0.32274,0.0710551 -0.48515,0.0194173 -0.12848,-0.0408465 -0.248319,-0.11274 -0.352965,-0.197008 -0.0545079,-0.0438937 -0.118406,-0.101106 -0.163213,-0.155949l-0.00161024 -0.00170472c-0.474756,-0.501823 -0.760638,-1.14433 -0.539453,-1.83206 0.0217126,-0.0675079 0.0478189,-0.133563 0.0778346,-0.197807 0.138496,-0.296402 0.357846,-0.551685 0.61235,-0.754996 0.263055,-0.210142 0.571248,-0.371394 0.893004,-0.470512 0.741898,-0.228551 1.61599,-0.148185 2.08713,0.538413 0.319823,0.466079 0.732244,1.22873 0.332106,1.76785 -0.107925,0.145417 -0.259406,0.250008 -0.424953,0.319941 -0.0907362,0.0383307 -0.202205,0.0732559 -0.300567,0.0862283l-0.020185 0.00266535 -0.019752 -0.00496063c-0.311343,-0.0782087 -0.629161,-0.0657126 -0.908661,0.102819 -0.119886,0.0722874 -0.233445,0.175102 -0.312106,0.291854z"/><path fill="#0b4c6f" d="M3.2503 3.61213c0.101193,0 0.192815,0.0410236 0.259134,0.107346 0.0663189,0.0663189 0.107343,0.157945 0.107343,0.259138 0,0.101193 -0.0410236,0.192819 -0.107343,0.259138 -0.0663189,0.0663189 -0.157941,0.107343 -0.259134,0.107343 -0.101197,0 -0.192819,-0.0410236 -0.259138,-0.107343 -0.0663189,-0.0663189 -0.107343,-0.157945 -0.107343,-0.259138 0,-0.101193 0.0410236,-0.192815 0.107343,-0.259138 0.0663189,-0.0663189 0.157941,-0.107346 0.259138,-0.107346zm1.18504 0.135146c-0.0663189,-0.0663189 -0.107343,-0.157941 -0.107343,-0.259134 0,-0.101197 0.0410236,-0.192819 0.107343,-0.259142 0.0663189,-0.0663189 0.157941,-0.107343 0.259134,-0.107343 0.101193,0 0.192819,0.0410236 0.259138,0.107343 0.0663189,0.0663228 0.107343,0.157945 0.107343,0.259142 0,0.101189 -0.0410236,0.192811 -0.107343,0.259134 -0.0663189,0.0663189 -0.157945,0.107343 -0.259138,0.107343 -0.101193,0 -0.192815,-0.0410236 -0.259134,-0.107343zm-1.06242 -0.996224c-0.101193,0 -0.192815,-0.0410236 -0.259134,-0.107343 -0.0663189,-0.0663189 -0.107343,-0.157941 -0.107343,-0.259138 0,-0.101193 0.0410236,-0.192815 0.107343,-0.259134 0.066315,-0.0663189 0.157937,-0.107343 0.259134,-0.107343 0.101193,0 0.192819,0.0410236 0.259138,0.107343 0.0663189,0.0663189 0.107343,0.157941 0.107343,0.259134 0,0.101197 -0.0410276,0.192819 -0.107346,0.259138 -0.0663189,0.0663189 -0.157941,0.107343 -0.259134,0.107343zm-0.585571 -0.271386c0.0663189,0.0663189 0.107346,0.157941 0.107346,0.259134 0,0.101197 -0.0410236,0.192819 -0.107346,0.259138 -0.0663189,0.0663189 -0.157945,0.107343 -0.259138,0.107343 -0.101193,0 -0.192815,-0.0410236 -0.259134,-0.107343 -0.0663189,-0.0663189 -0.107343,-0.157941 -0.107343,-0.259138 0,-0.101193 0.0410236,-0.192815 0.107343,-0.259134 0.0663189,-0.0663228 0.157941,-0.107346 0.259134,-0.107346 0.101193,0 0.192815,0.0410236 0.259138,0.107346zm0.209717 -0.731327c-0.309961,0.0954882 -0.606504,0.251138 -0.857835,0.451917 -0.250012,0.199724 -0.454665,0.443677 -0.582291,0.716811 -0.258697,0.55365 -0.200024,1.23228 0.442472,1.91141l0.000255906 -0.000240157c0.00185827,0.00196457 0.00357087,0.00401181 0.00514173,0.00612992 0.0532913,0.0605945 0.761748,0.836618 1.30036,-0.134469l-0.000192913 -0.000106299c0.00127165,-0.00229134 0.00266142,-0.00447638 0.00415354,-0.00655906 0.0356417,-0.0567165 0.441465,-0.664917 1.3363,-0.440142 0.134421,-0.0177323 1.43507,-0.237256 0.319413,-2.00792 -0.459071,-0.61587 -1.24926,-0.718177 -1.96778,-0.496831zm1.01592 1.09973c-0.0663189,-0.0663189 -0.107343,-0.157941 -0.107343,-0.259134 0,-0.101197 0.0410236,-0.192819 0.107343,-0.259138 0.0663189,-0.0663189 0.157941,-0.107343 0.259138,-0.107343 0.101193,0 0.192815,0.0410236 0.259134,0.107343 0.0663228,0.0663189 0.107346,0.157941 0.107346,0.259138 0,0.101193 -0.0410236,0.192815 -0.107346,0.259134 -0.0663189,0.0663189 -0.157941,0.107346 -0.259134,0.107346 -0.101197,0 -0.192819,-0.0410276 -0.259138,-0.107346zm-1.87987 0.355331c0.101193,0 0.192815,0.0410236 0.259134,0.107346 0.0663189,0.066315 0.107343,0.157945 0.107343,0.25913 0,0.101197 -0.0410236,0.192823 -0.107343,0.259142 -0.0663189,0.0663189 -0.157941,0.107343 -0.259134,0.107343 -0.101193,0 -0.192819,-0.0410236 -0.259138,-0.107343 -0.0663189,-0.0663189 -0.107343,-0.157945 -0.107343,-0.259142 0,-0.101189 0.0410236,-0.192811 0.107343,-0.25913 0.0663189,-0.0663228 0.157945,-0.107346 0.259138,-0.107346z"/><path fill="#0b4c6f" d="M2.69296 2.90356c.0421535-.0421575.0682323-.100409.0682323-.164752 0-.0643425-.0260787-.122594-.0682362-.164752-.0421575-.0421535-.100409-.0682323-.164752-.0682323-.0643386 0-.122591.0260787-.164748.0682323-.0421575.0421575-.0682362.100409-.0682362.164752 0 .0643425.0260787.122594.0682362.164752.0421535.0421575.100406.0682362.164748.0682362.0643425 0 .122598-.0260787.164756-.0682362zM3.13993 2.38457c0 .0643425.0260787.122598.0682362.164752.0421535.0421575.100406.0682362.164748.0682362.0643386 0 .122594-.0260787.164748-.0682362.0421575-.0421535.0682402-.100409.0682402-.164752 0-.0643386-.0260787-.122594-.0682362-.164748-.0421575-.0421575-.100413-.0682362-.164752-.0682362-.0643425 0-.122594.0260787-.164748.0682362-.0421575.0421535-.0682362.100409-.0682362.164748zM4.10736 2.42419c-.0421575.0421575-.0682362.100409-.0682362.164752 0 .0643425.0260787.122594.0682362.164748.0421575.0421575.100409.0682402.164752.0682402.0643425 0 .122594-.0260827.164752-.0682402.0421535-.0421535.0682323-.100406.0682323-.164748 0-.0643425-.0260787-.122594-.0682323-.164752-.0421575-.0421575-.100409-.0682362-.164752-.0682362-.0643425 0-.122594.0260787-.164752.0682362zM4.69447 3.25515c-.0643425 0-.122594.0260787-.164748.0682362-.0421575.0421575-.0682362.100413-.0682362.164756 0 .0643425.0260787.122594.0682362.164748.0421535.0421575.100406.0682323.164748.0682323.0643386 0 .122594-.0260748.164752-.0682323.0421575-.0421575.0682362-.100409.0682362-.164748 0-.0643425-.0260787-.122598-.0682362-.164756-.0421575-.0421575-.100413-.0682362-.164752-.0682362zM3.48328 3.97862c0-.0643425-.0260787-.122598-.0682323-.164756-.0421575-.0421535-.100409-.0682323-.164752-.0682323-.0643425 0-.122594.0260787-.164752.0682362-.0421575.0421575-.0682362.100409-.0682362.164752 0 .0643425.0260787.122594.0682362.164752.0421575.0421575.100409.0682362.164752.0682362.0643425 0 .122594-.0260787.164752-.0682362.0421535-.0421575.0682323-.100409.0682323-.164752zM2.29785 3.73464c.0421575-.0421575.0682362-.100413.0682362-.164756 0-.0643425-.0260787-.122594-.0682362-.164748-.0421535-.0421575-.100406-.0682323-.164748-.0682323-.0643425 0-.122594.0260748-.164752.0682323-.0421575.0421575-.0682362.100409-.0682362.164748 0 .0643425.0260787.122598.0682362.164756.0421575.0421575.100409.0682362.164752.0682362.0643425 0 .122594-.0260787.164748-.0682362z"/></svg>