<svg xmlns="http://www.w3.org/2000/svg" width="24" height="24" viewBox="0 0 24 24"><path fill="none" d="M0,0H24V24H0Z" data-name="Path 3622"/><path fill="#525863" d="M-6.3,19.2A2.7,2.7,0,0,1-9,16.5V2.7A2.7,2.7,0,0,1-6.3,0H2.4a.9.9,0,0,1,0,1.8H-6.3a.9.9,0,0,0-.9.9V16.5a.9.9,0,0,0,.9.9H7.5a.9.9,0,0,0,.9-.9V8.1a.9.9,0,1,1,1.8,0v8.4a2.7,2.7,0,0,1-2.7,2.7ZM-4.329,14l.634-3.713a.014.014,0,0,1,0-.008l4.24-4.24L6.062.527A1.793,1.793,0,0,1,7.334,0,1.812,1.812,0,0,1,8.616.53l.527.527.53.53h0a1.8,1.8,0,0,1,0,2.545L4.157,9.649l-4.238,4.24a.016.016,0,0,1-.008,0l-3.713.633a.464.464,0,0,1-.078.007A.456.456,0,0,1-4.329,14ZM1.82,7.315l-3.84,3.84-.219,1.28,1.28-.219,3.84-3.84L8.4,2.861l-.53-.53-.53-.53h0Z" data-name="Path 2689" transform="translate(11.4 2.4)"/></svg>